<svg xmlns="http://www.w3.org/2000/svg" width="1200" height="400" viewBox="0 0 1200 400">
  <rect width="100%" height="100%" fill="#111"></rect>
  <path d="M 340,200 420,200 460,130.72 300,130.72 260,200 300,269.28 460,269.28 540,130.72 620,269.28 760,269.28 780,234.64 760,200 660,200 640,165.36 660,130.72 820,130.72 790,182.68 780,165.36 680,165.36" fill="none" stroke="#eaeaea" stroke-width="5" stroke-opacity="0.1" stroke-linecap="round" stroke-linejoin="round" stroke-dasharray="1700" stroke-dashoffset="0"><animate dur="1.5s" repeatCount="stop" attributeName="stroke-dashoffset" values="1700; 1700; 0; 0" keyTimes="0; 0; 1; 1"></animate></path><path d="M 400,165.36 320,165.36 300,200 320,234.64 440,234.64 500,130.72" fill="none" stroke="#eaeaea" stroke-width="5" stroke-opacity="0.1" stroke-linecap="round" stroke-linejoin="round" stroke-dasharray="400" stroke-dashoffset="0"><animate dur="1.5s" repeatCount="stop" attributeName="stroke-dashoffset" values="400; 400; 0; 0" keyTimes="0; 0.052; 0.312; 1"></animate></path><path d="M 480,130.72 430,217.32 330,217.32 320,200 330,182.68 410,182.68 430,148.04 310,148.04 280,200 310,251.96 450,251.96 520,130.72" fill="none" stroke="#eaeaea" stroke-width="5" stroke-opacity="0.1" stroke-linecap="round" stroke-linejoin="round" stroke-dasharray="880" stroke-dashoffset="0"><animate dur="1.5s" repeatCount="stop" attributeName="stroke-dashoffset" values="880; 880; 0; 0" keyTimes="0; 0; 0.558; 1"></animate></path><path d="M 480,269.28 510,217.32 570,217.32 600,269.28" fill="none" stroke="#eaeaea" stroke-width="5" stroke-opacity="0.1" stroke-linecap="round" stroke-linejoin="round" stroke-dasharray="180" stroke-dashoffset="0"><animate dur="1.5s" repeatCount="stop" attributeName="stroke-dashoffset" values="180; 180; 0; 0" keyTimes="0; 0.312; 0.429; 1"></animate></path><path d="M 500,269.28 520,234.64 560,234.64 580,269.28" fill="none" stroke="#eaeaea" stroke-width="5" stroke-opacity="0.1" stroke-linecap="round" stroke-linejoin="round" stroke-dasharray="120" stroke-dashoffset="0"><animate dur="1.5s" repeatCount="stop" attributeName="stroke-dashoffset" values="120; 120; 0; 0" keyTimes="0; 0.364; 0.442; 1"></animate></path><path d="M 520,269.28 530,251.96 550,251.96 560,269.28" fill="none" stroke="#eaeaea" stroke-width="5" stroke-opacity="0.1" stroke-linecap="round" stroke-linejoin="round" stroke-dasharray="60" stroke-dashoffset="0"><animate dur="1.5s" repeatCount="stop" attributeName="stroke-dashoffset" values="60; 60; 0; 0" keyTimes="0; 0.416; 0.455; 1"></animate></path><path d="M 520,200 540,165.36 560,200 520,200" fill="none" stroke="#eaeaea" stroke-width="5" stroke-opacity="0.1" stroke-linecap="round" stroke-linejoin="round" stroke-dasharray="120" stroke-dashoffset="0"><animate dur="1.5s" repeatCount="stop" attributeName="stroke-dashoffset" values="120; 120; 0; 0" keyTimes="0; 0.494; 0.571; 1"></animate></path><path d="M 560,130.72 630,251.96 750,251.96 760,234.64 750,217.32 650,217.32 600,130.72" fill="none" stroke="#eaeaea" stroke-width="5" stroke-opacity="0.1" stroke-linecap="round" stroke-linejoin="round" stroke-dasharray="500" stroke-dashoffset="0"><animate dur="1.5s" repeatCount="stop" attributeName="stroke-dashoffset" values="500; 500; 0; 0" keyTimes="0; 0.468; 0.792; 1"></animate></path><path d="M 580,130.72 640,234.64 740,234.64" fill="none" stroke="#eaeaea" stroke-width="5" stroke-opacity="0.1" stroke-linecap="round" stroke-linejoin="round" stroke-dasharray="220" stroke-dashoffset="0"><animate dur="1.5s" repeatCount="stop" attributeName="stroke-dashoffset" values="220; 220; 0; 0" keyTimes="0; 0.545; 0.688; 1"></animate></path><path d="M 620,130.72 630,148.04 640,130.72" fill="none" stroke="#eaeaea" stroke-width="5" stroke-opacity="0.1" stroke-linecap="round" stroke-linejoin="round" stroke-dasharray="40" stroke-dashoffset="0"><animate dur="1.5s" repeatCount="stop" attributeName="stroke-dashoffset" values="40; 40; 0; 0" keyTimes="0; 0.792; 0.818; 1"></animate></path><path d="M 790,148.04 670,148.04 660,165.36 670,182.68 770,182.68 790,217.32 840,130.72 920,269.28" fill="none" stroke="#eaeaea" stroke-width="5" stroke-opacity="0.1" stroke-linecap="round" stroke-linejoin="round" stroke-dasharray="560" stroke-dashoffset="0"><animate dur="1.5s" repeatCount="stop" attributeName="stroke-dashoffset" values="560; 560; 0; 0" keyTimes="0; 0.636; 1; 1"></animate></path><path d="M 780,269.28 810,217.32 870,217.32 900,269.28" fill="none" stroke="#eaeaea" stroke-width="5" stroke-opacity="0.1" stroke-linecap="round" stroke-linejoin="round" stroke-dasharray="180" stroke-dashoffset="0"><animate dur="1.5s" repeatCount="stop" attributeName="stroke-dashoffset" values="180; 180; 0; 0" keyTimes="0; 0.675; 0.792; 1"></animate></path><path d="M 800,269.28 820,234.64 860,234.64 880,269.28" fill="none" stroke="#eaeaea" stroke-width="5" stroke-opacity="0.1" stroke-linecap="round" stroke-linejoin="round" stroke-dasharray="120" stroke-dashoffset="0"><animate dur="1.5s" repeatCount="stop" attributeName="stroke-dashoffset" values="120; 120; 0; 0" keyTimes="0; 0.727; 0.805; 1"></animate></path><path d="M 820,269.28 830,251.96 850,251.96 860,269.28" fill="none" stroke="#eaeaea" stroke-width="5" stroke-opacity="0.1" stroke-linecap="round" stroke-linejoin="round" stroke-dasharray="60" stroke-dashoffset="0"><animate dur="1.5s" repeatCount="stop" attributeName="stroke-dashoffset" values="60; 60; 0; 0" keyTimes="0; 0.779; 0.818; 1"></animate></path><path d="M 820,200 840,165.36 860,200 820,200" fill="none" stroke="#eaeaea" stroke-width="5" stroke-opacity="0.1" stroke-linecap="round" stroke-linejoin="round" stroke-dasharray="120" stroke-dashoffset="0"><animate dur="1.5s" repeatCount="stop" attributeName="stroke-dashoffset" values="120; 120; 0; 0" keyTimes="0; 0.792; 0.87; 1"></animate></path><path d="M 340,200 420,200 460,130.72 300,130.72 260,200 300,269.28 460,269.28 540,130.72 620,269.28 760,269.28 780,234.64 760,200 660,200 640,165.36 660,130.72 820,130.72 790,182.68 780,165.36 680,165.36" fill="none" stroke="#eaeaea" stroke-width="4" stroke-opacity="0.2" stroke-linecap="round" stroke-linejoin="round" stroke-dasharray="1700" stroke-dashoffset="0"><animate dur="1.5s" repeatCount="stop" attributeName="stroke-dashoffset" values="1700; 1700; 0; 0" keyTimes="0; 0; 1; 1"></animate></path><path d="M 400,165.36 320,165.36 300,200 320,234.64 440,234.64 500,130.72" fill="none" stroke="#eaeaea" stroke-width="4" stroke-opacity="0.2" stroke-linecap="round" stroke-linejoin="round" stroke-dasharray="400" stroke-dashoffset="0"><animate dur="1.5s" repeatCount="stop" attributeName="stroke-dashoffset" values="400; 400; 0; 0" keyTimes="0; 0.052; 0.312; 1"></animate></path><path d="M 480,130.72 430,217.32 330,217.32 320,200 330,182.68 410,182.68 430,148.04 310,148.04 280,200 310,251.96 450,251.96 520,130.72" fill="none" stroke="#eaeaea" stroke-width="4" stroke-opacity="0.2" stroke-linecap="round" stroke-linejoin="round" stroke-dasharray="880" stroke-dashoffset="0"><animate dur="1.5s" repeatCount="stop" attributeName="stroke-dashoffset" values="880; 880; 0; 0" keyTimes="0; 0; 0.558; 1"></animate></path><path d="M 480,269.28 510,217.32 570,217.32 600,269.28" fill="none" stroke="#eaeaea" stroke-width="4" stroke-opacity="0.2" stroke-linecap="round" stroke-linejoin="round" stroke-dasharray="180" stroke-dashoffset="0"><animate dur="1.5s" repeatCount="stop" attributeName="stroke-dashoffset" values="180; 180; 0; 0" keyTimes="0; 0.312; 0.429; 1"></animate></path><path d="M 500,269.28 520,234.64 560,234.64 580,269.28" fill="none" stroke="#eaeaea" stroke-width="4" stroke-opacity="0.2" stroke-linecap="round" stroke-linejoin="round" stroke-dasharray="120" stroke-dashoffset="0"><animate dur="1.5s" repeatCount="stop" attributeName="stroke-dashoffset" values="120; 120; 0; 0" keyTimes="0; 0.364; 0.442; 1"></animate></path><path d="M 520,269.28 530,251.96 550,251.96 560,269.28" fill="none" stroke="#eaeaea" stroke-width="4" stroke-opacity="0.2" stroke-linecap="round" stroke-linejoin="round" stroke-dasharray="60" stroke-dashoffset="0"><animate dur="1.5s" repeatCount="stop" attributeName="stroke-dashoffset" values="60; 60; 0; 0" keyTimes="0; 0.416; 0.455; 1"></animate></path><path d="M 520,200 540,165.36 560,200 520,200" fill="none" stroke="#eaeaea" stroke-width="4" stroke-opacity="0.2" stroke-linecap="round" stroke-linejoin="round" stroke-dasharray="120" stroke-dashoffset="0"><animate dur="1.5s" repeatCount="stop" attributeName="stroke-dashoffset" values="120; 120; 0; 0" keyTimes="0; 0.494; 0.571; 1"></animate></path><path d="M 560,130.72 630,251.96 750,251.96 760,234.64 750,217.32 650,217.32 600,130.72" fill="none" stroke="#eaeaea" stroke-width="4" stroke-opacity="0.2" stroke-linecap="round" stroke-linejoin="round" stroke-dasharray="500" stroke-dashoffset="0"><animate dur="1.5s" repeatCount="stop" attributeName="stroke-dashoffset" values="500; 500; 0; 0" keyTimes="0; 0.468; 0.792; 1"></animate></path><path d="M 580,130.72 640,234.64 740,234.64" fill="none" stroke="#eaeaea" stroke-width="4" stroke-opacity="0.2" stroke-linecap="round" stroke-linejoin="round" stroke-dasharray="220" stroke-dashoffset="0"><animate dur="1.5s" repeatCount="stop" attributeName="stroke-dashoffset" values="220; 220; 0; 0" keyTimes="0; 0.545; 0.688; 1"></animate></path><path d="M 620,130.72 630,148.04 640,130.72" fill="none" stroke="#eaeaea" stroke-width="4" stroke-opacity="0.2" stroke-linecap="round" stroke-linejoin="round" stroke-dasharray="40" stroke-dashoffset="0"><animate dur="1.5s" repeatCount="stop" attributeName="stroke-dashoffset" values="40; 40; 0; 0" keyTimes="0; 0.792; 0.818; 1"></animate></path><path d="M 790,148.04 670,148.04 660,165.36 670,182.68 770,182.68 790,217.32 840,130.72 920,269.28" fill="none" stroke="#eaeaea" stroke-width="4" stroke-opacity="0.2" stroke-linecap="round" stroke-linejoin="round" stroke-dasharray="560" stroke-dashoffset="0"><animate dur="1.5s" repeatCount="stop" attributeName="stroke-dashoffset" values="560; 560; 0; 0" keyTimes="0; 0.636; 1; 1"></animate></path><path d="M 780,269.28 810,217.32 870,217.32 900,269.28" fill="none" stroke="#eaeaea" stroke-width="4" stroke-opacity="0.2" stroke-linecap="round" stroke-linejoin="round" stroke-dasharray="180" stroke-dashoffset="0"><animate dur="1.5s" repeatCount="stop" attributeName="stroke-dashoffset" values="180; 180; 0; 0" keyTimes="0; 0.675; 0.792; 1"></animate></path><path d="M 800,269.28 820,234.64 860,234.64 880,269.28" fill="none" stroke="#eaeaea" stroke-width="4" stroke-opacity="0.2" stroke-linecap="round" stroke-linejoin="round" stroke-dasharray="120" stroke-dashoffset="0"><animate dur="1.5s" repeatCount="stop" attributeName="stroke-dashoffset" values="120; 120; 0; 0" keyTimes="0; 0.727; 0.805; 1"></animate></path><path d="M 820,269.28 830,251.96 850,251.96 860,269.28" fill="none" stroke="#eaeaea" stroke-width="4" stroke-opacity="0.2" stroke-linecap="round" stroke-linejoin="round" stroke-dasharray="60" stroke-dashoffset="0"><animate dur="1.5s" repeatCount="stop" attributeName="stroke-dashoffset" values="60; 60; 0; 0" keyTimes="0; 0.779; 0.818; 1"></animate></path><path d="M 820,200 840,165.36 860,200 820,200" fill="none" stroke="#eaeaea" stroke-width="4" stroke-opacity="0.2" stroke-linecap="round" stroke-linejoin="round" stroke-dasharray="120" stroke-dashoffset="0"><animate dur="1.5s" repeatCount="stop" attributeName="stroke-dashoffset" values="120; 120; 0; 0" keyTimes="0; 0.792; 0.87; 1"></animate></path><path d="M 340,200 420,200 460,130.72 300,130.72 260,200 300,269.28 460,269.28 540,130.72 620,269.28 760,269.28 780,234.64 760,200 660,200 640,165.36 660,130.72 820,130.72 790,182.68 780,165.36 680,165.36" fill="none" stroke="#eaeaea" stroke-width="3" stroke-opacity="0.4" stroke-linecap="round" stroke-linejoin="round" stroke-dasharray="1700" stroke-dashoffset="0"><animate dur="1.5s" repeatCount="stop" attributeName="stroke-dashoffset" values="1700; 1700; 0; 0" keyTimes="0; 0; 1; 1"></animate></path><path d="M 400,165.36 320,165.36 300,200 320,234.64 440,234.64 500,130.72" fill="none" stroke="#eaeaea" stroke-width="3" stroke-opacity="0.4" stroke-linecap="round" stroke-linejoin="round" stroke-dasharray="400" stroke-dashoffset="0"><animate dur="1.5s" repeatCount="stop" attributeName="stroke-dashoffset" values="400; 400; 0; 0" keyTimes="0; 0.052; 0.312; 1"></animate></path><path d="M 480,130.72 430,217.32 330,217.32 320,200 330,182.68 410,182.68 430,148.04 310,148.04 280,200 310,251.96 450,251.96 520,130.72" fill="none" stroke="#eaeaea" stroke-width="3" stroke-opacity="0.4" stroke-linecap="round" stroke-linejoin="round" stroke-dasharray="880" stroke-dashoffset="0"><animate dur="1.5s" repeatCount="stop" attributeName="stroke-dashoffset" values="880; 880; 0; 0" keyTimes="0; 0; 0.558; 1"></animate></path><path d="M 480,269.28 510,217.32 570,217.32 600,269.28" fill="none" stroke="#eaeaea" stroke-width="3" stroke-opacity="0.4" stroke-linecap="round" stroke-linejoin="round" stroke-dasharray="180" stroke-dashoffset="0"><animate dur="1.5s" repeatCount="stop" attributeName="stroke-dashoffset" values="180; 180; 0; 0" keyTimes="0; 0.312; 0.429; 1"></animate></path><path d="M 500,269.28 520,234.64 560,234.64 580,269.28" fill="none" stroke="#eaeaea" stroke-width="3" stroke-opacity="0.4" stroke-linecap="round" stroke-linejoin="round" stroke-dasharray="120" stroke-dashoffset="0"><animate dur="1.5s" repeatCount="stop" attributeName="stroke-dashoffset" values="120; 120; 0; 0" keyTimes="0; 0.364; 0.442; 1"></animate></path><path d="M 520,269.28 530,251.96 550,251.96 560,269.28" fill="none" stroke="#eaeaea" stroke-width="3" stroke-opacity="0.4" stroke-linecap="round" stroke-linejoin="round" stroke-dasharray="60" stroke-dashoffset="0"><animate dur="1.5s" repeatCount="stop" attributeName="stroke-dashoffset" values="60; 60; 0; 0" keyTimes="0; 0.416; 0.455; 1"></animate></path><path d="M 520,200 540,165.36 560,200 520,200" fill="none" stroke="#eaeaea" stroke-width="3" stroke-opacity="0.4" stroke-linecap="round" stroke-linejoin="round" stroke-dasharray="120" stroke-dashoffset="0"><animate dur="1.5s" repeatCount="stop" attributeName="stroke-dashoffset" values="120; 120; 0; 0" keyTimes="0; 0.494; 0.571; 1"></animate></path><path d="M 560,130.72 630,251.96 750,251.96 760,234.64 750,217.32 650,217.32 600,130.72" fill="none" stroke="#eaeaea" stroke-width="3" stroke-opacity="0.4" stroke-linecap="round" stroke-linejoin="round" stroke-dasharray="500" stroke-dashoffset="0"><animate dur="1.5s" repeatCount="stop" attributeName="stroke-dashoffset" values="500; 500; 0; 0" keyTimes="0; 0.468; 0.792; 1"></animate></path><path d="M 580,130.72 640,234.64 740,234.64" fill="none" stroke="#eaeaea" stroke-width="3" stroke-opacity="0.4" stroke-linecap="round" stroke-linejoin="round" stroke-dasharray="220" stroke-dashoffset="0"><animate dur="1.5s" repeatCount="stop" attributeName="stroke-dashoffset" values="220; 220; 0; 0" keyTimes="0; 0.545; 0.688; 1"></animate></path><path d="M 620,130.72 630,148.04 640,130.72" fill="none" stroke="#eaeaea" stroke-width="3" stroke-opacity="0.4" stroke-linecap="round" stroke-linejoin="round" stroke-dasharray="40" stroke-dashoffset="0"><animate dur="1.5s" repeatCount="stop" attributeName="stroke-dashoffset" values="40; 40; 0; 0" keyTimes="0; 0.792; 0.818; 1"></animate></path><path d="M 790,148.04 670,148.04 660,165.36 670,182.68 770,182.68 790,217.32 840,130.72 920,269.28" fill="none" stroke="#eaeaea" stroke-width="3" stroke-opacity="0.4" stroke-linecap="round" stroke-linejoin="round" stroke-dasharray="560" stroke-dashoffset="0"><animate dur="1.5s" repeatCount="stop" attributeName="stroke-dashoffset" values="560; 560; 0; 0" keyTimes="0; 0.636; 1; 1"></animate></path><path d="M 780,269.28 810,217.32 870,217.32 900,269.28" fill="none" stroke="#eaeaea" stroke-width="3" stroke-opacity="0.4" stroke-linecap="round" stroke-linejoin="round" stroke-dasharray="180" stroke-dashoffset="0"><animate dur="1.5s" repeatCount="stop" attributeName="stroke-dashoffset" values="180; 180; 0; 0" keyTimes="0; 0.675; 0.792; 1"></animate></path><path d="M 800,269.28 820,234.64 860,234.64 880,269.28" fill="none" stroke="#eaeaea" stroke-width="3" stroke-opacity="0.4" stroke-linecap="round" stroke-linejoin="round" stroke-dasharray="120" stroke-dashoffset="0"><animate dur="1.5s" repeatCount="stop" attributeName="stroke-dashoffset" values="120; 120; 0; 0" keyTimes="0; 0.727; 0.805; 1"></animate></path><path d="M 820,269.28 830,251.96 850,251.96 860,269.28" fill="none" stroke="#eaeaea" stroke-width="3" stroke-opacity="0.4" stroke-linecap="round" stroke-linejoin="round" stroke-dasharray="60" stroke-dashoffset="0"><animate dur="1.5s" repeatCount="stop" attributeName="stroke-dashoffset" values="60; 60; 0; 0" keyTimes="0; 0.779; 0.818; 1"></animate></path><path d="M 820,200 840,165.36 860,200 820,200" fill="none" stroke="#eaeaea" stroke-width="3" stroke-opacity="0.4" stroke-linecap="round" stroke-linejoin="round" stroke-dasharray="120" stroke-dashoffset="0"><animate dur="1.5s" repeatCount="stop" attributeName="stroke-dashoffset" values="120; 120; 0; 0" keyTimes="0; 0.792; 0.87; 1"></animate></path><path d="M 340,200 420,200 460,130.72 300,130.72 260,200 300,269.28 460,269.28 540,130.72 620,269.28 760,269.28 780,234.64 760,200 660,200 640,165.36 660,130.72 820,130.72 790,182.68 780,165.36 680,165.36" fill="none" stroke="#eaeaea" stroke-width="2" stroke-opacity="0.6" stroke-linecap="round" stroke-linejoin="round" stroke-dasharray="1700" stroke-dashoffset="0"><animate dur="1.5s" repeatCount="stop" attributeName="stroke-dashoffset" values="1700; 1700; 0; 0" keyTimes="0; 0; 1; 1"></animate></path><path d="M 400,165.36 320,165.36 300,200 320,234.64 440,234.64 500,130.72" fill="none" stroke="#eaeaea" stroke-width="2" stroke-opacity="0.6" stroke-linecap="round" stroke-linejoin="round" stroke-dasharray="400" stroke-dashoffset="0"><animate dur="1.5s" repeatCount="stop" attributeName="stroke-dashoffset" values="400; 400; 0; 0" keyTimes="0; 0.052; 0.312; 1"></animate></path><path d="M 480,130.72 430,217.32 330,217.32 320,200 330,182.68 410,182.68 430,148.04 310,148.04 280,200 310,251.96 450,251.96 520,130.72" fill="none" stroke="#eaeaea" stroke-width="2" stroke-opacity="0.6" stroke-linecap="round" stroke-linejoin="round" stroke-dasharray="880" stroke-dashoffset="0"><animate dur="1.5s" repeatCount="stop" attributeName="stroke-dashoffset" values="880; 880; 0; 0" keyTimes="0; 0; 0.558; 1"></animate></path><path d="M 480,269.28 510,217.32 570,217.32 600,269.28" fill="none" stroke="#eaeaea" stroke-width="2" stroke-opacity="0.6" stroke-linecap="round" stroke-linejoin="round" stroke-dasharray="180" stroke-dashoffset="0"><animate dur="1.5s" repeatCount="stop" attributeName="stroke-dashoffset" values="180; 180; 0; 0" keyTimes="0; 0.312; 0.429; 1"></animate></path><path d="M 500,269.28 520,234.64 560,234.64 580,269.28" fill="none" stroke="#eaeaea" stroke-width="2" stroke-opacity="0.6" stroke-linecap="round" stroke-linejoin="round" stroke-dasharray="120" stroke-dashoffset="0"><animate dur="1.5s" repeatCount="stop" attributeName="stroke-dashoffset" values="120; 120; 0; 0" keyTimes="0; 0.364; 0.442; 1"></animate></path><path d="M 520,269.28 530,251.96 550,251.96 560,269.28" fill="none" stroke="#eaeaea" stroke-width="2" stroke-opacity="0.6" stroke-linecap="round" stroke-linejoin="round" stroke-dasharray="60" stroke-dashoffset="0"><animate dur="1.5s" repeatCount="stop" attributeName="stroke-dashoffset" values="60; 60; 0; 0" keyTimes="0; 0.416; 0.455; 1"></animate></path><path d="M 520,200 540,165.36 560,200 520,200" fill="none" stroke="#eaeaea" stroke-width="2" stroke-opacity="0.6" stroke-linecap="round" stroke-linejoin="round" stroke-dasharray="120" stroke-dashoffset="0"><animate dur="1.5s" repeatCount="stop" attributeName="stroke-dashoffset" values="120; 120; 0; 0" keyTimes="0; 0.494; 0.571; 1"></animate></path><path d="M 560,130.72 630,251.96 750,251.96 760,234.64 750,217.32 650,217.32 600,130.72" fill="none" stroke="#eaeaea" stroke-width="2" stroke-opacity="0.6" stroke-linecap="round" stroke-linejoin="round" stroke-dasharray="500" stroke-dashoffset="0"><animate dur="1.5s" repeatCount="stop" attributeName="stroke-dashoffset" values="500; 500; 0; 0" keyTimes="0; 0.468; 0.792; 1"></animate></path><path d="M 580,130.72 640,234.64 740,234.64" fill="none" stroke="#eaeaea" stroke-width="2" stroke-opacity="0.6" stroke-linecap="round" stroke-linejoin="round" stroke-dasharray="220" stroke-dashoffset="0"><animate dur="1.5s" repeatCount="stop" attributeName="stroke-dashoffset" values="220; 220; 0; 0" keyTimes="0; 0.545; 0.688; 1"></animate></path><path d="M 620,130.72 630,148.04 640,130.72" fill="none" stroke="#eaeaea" stroke-width="2" stroke-opacity="0.6" stroke-linecap="round" stroke-linejoin="round" stroke-dasharray="40" stroke-dashoffset="0"><animate dur="1.5s" repeatCount="stop" attributeName="stroke-dashoffset" values="40; 40; 0; 0" keyTimes="0; 0.792; 0.818; 1"></animate></path><path d="M 790,148.04 670,148.04 660,165.36 670,182.68 770,182.68 790,217.32 840,130.72 920,269.28" fill="none" stroke="#eaeaea" stroke-width="2" stroke-opacity="0.6" stroke-linecap="round" stroke-linejoin="round" stroke-dasharray="560" stroke-dashoffset="0"><animate dur="1.5s" repeatCount="stop" attributeName="stroke-dashoffset" values="560; 560; 0; 0" keyTimes="0; 0.636; 1; 1"></animate></path><path d="M 780,269.28 810,217.32 870,217.32 900,269.28" fill="none" stroke="#eaeaea" stroke-width="2" stroke-opacity="0.6" stroke-linecap="round" stroke-linejoin="round" stroke-dasharray="180" stroke-dashoffset="0"><animate dur="1.5s" repeatCount="stop" attributeName="stroke-dashoffset" values="180; 180; 0; 0" keyTimes="0; 0.675; 0.792; 1"></animate></path><path d="M 800,269.28 820,234.64 860,234.64 880,269.28" fill="none" stroke="#eaeaea" stroke-width="2" stroke-opacity="0.6" stroke-linecap="round" stroke-linejoin="round" stroke-dasharray="120" stroke-dashoffset="0"><animate dur="1.5s" repeatCount="stop" attributeName="stroke-dashoffset" values="120; 120; 0; 0" keyTimes="0; 0.727; 0.805; 1"></animate></path><path d="M 820,269.28 830,251.96 850,251.96 860,269.28" fill="none" stroke="#eaeaea" stroke-width="2" stroke-opacity="0.6" stroke-linecap="round" stroke-linejoin="round" stroke-dasharray="60" stroke-dashoffset="0"><animate dur="1.5s" repeatCount="stop" attributeName="stroke-dashoffset" values="60; 60; 0; 0" keyTimes="0; 0.779; 0.818; 1"></animate></path><path d="M 820,200 840,165.36 860,200 820,200" fill="none" stroke="#eaeaea" stroke-width="2" stroke-opacity="0.6" stroke-linecap="round" stroke-linejoin="round" stroke-dasharray="120" stroke-dashoffset="0"><animate dur="1.5s" repeatCount="stop" attributeName="stroke-dashoffset" values="120; 120; 0; 0" keyTimes="0; 0.792; 0.87; 1"></animate></path><path d="M 340,200 420,200 460,130.72 300,130.72 260,200 300,269.28 460,269.28 540,130.72 620,269.28 760,269.28 780,234.64 760,200 660,200 640,165.36 660,130.72 820,130.72 790,182.68 780,165.36 680,165.36" fill="none" stroke="#eaeaea" stroke-width="1" stroke-opacity="undefined" stroke-linecap="round" stroke-linejoin="round" stroke-dasharray="1700" stroke-dashoffset="0"><animate dur="1.5s" repeatCount="stop" attributeName="stroke-dashoffset" values="1700; 1700; 0; 0" keyTimes="0; 0; 1; 1"></animate></path><path d="M 400,165.36 320,165.36 300,200 320,234.64 440,234.64 500,130.72" fill="none" stroke="#eaeaea" stroke-width="1" stroke-opacity="undefined" stroke-linecap="round" stroke-linejoin="round" stroke-dasharray="400" stroke-dashoffset="0"><animate dur="1.5s" repeatCount="stop" attributeName="stroke-dashoffset" values="400; 400; 0; 0" keyTimes="0; 0.052; 0.312; 1"></animate></path><path d="M 480,130.72 430,217.32 330,217.32 320,200 330,182.68 410,182.68 430,148.04 310,148.04 280,200 310,251.96 450,251.96 520,130.72" fill="none" stroke="#eaeaea" stroke-width="1" stroke-opacity="undefined" stroke-linecap="round" stroke-linejoin="round" stroke-dasharray="880" stroke-dashoffset="0"><animate dur="1.5s" repeatCount="stop" attributeName="stroke-dashoffset" values="880; 880; 0; 0" keyTimes="0; 0; 0.558; 1"></animate></path><path d="M 480,269.28 510,217.32 570,217.32 600,269.28" fill="none" stroke="#eaeaea" stroke-width="1" stroke-opacity="undefined" stroke-linecap="round" stroke-linejoin="round" stroke-dasharray="180" stroke-dashoffset="0"><animate dur="1.5s" repeatCount="stop" attributeName="stroke-dashoffset" values="180; 180; 0; 0" keyTimes="0; 0.312; 0.429; 1"></animate></path><path d="M 500,269.28 520,234.64 560,234.64 580,269.28" fill="none" stroke="#eaeaea" stroke-width="1" stroke-opacity="undefined" stroke-linecap="round" stroke-linejoin="round" stroke-dasharray="120" stroke-dashoffset="0"><animate dur="1.5s" repeatCount="stop" attributeName="stroke-dashoffset" values="120; 120; 0; 0" keyTimes="0; 0.364; 0.442; 1"></animate></path><path d="M 520,269.28 530,251.96 550,251.96 560,269.28" fill="none" stroke="#eaeaea" stroke-width="1" stroke-opacity="undefined" stroke-linecap="round" stroke-linejoin="round" stroke-dasharray="60" stroke-dashoffset="0"><animate dur="1.5s" repeatCount="stop" attributeName="stroke-dashoffset" values="60; 60; 0; 0" keyTimes="0; 0.416; 0.455; 1"></animate></path><path d="M 520,200 540,165.36 560,200 520,200" fill="none" stroke="#eaeaea" stroke-width="1" stroke-opacity="undefined" stroke-linecap="round" stroke-linejoin="round" stroke-dasharray="120" stroke-dashoffset="0"><animate dur="1.5s" repeatCount="stop" attributeName="stroke-dashoffset" values="120; 120; 0; 0" keyTimes="0; 0.494; 0.571; 1"></animate></path><path d="M 560,130.72 630,251.96 750,251.96 760,234.64 750,217.32 650,217.32 600,130.72" fill="none" stroke="#eaeaea" stroke-width="1" stroke-opacity="undefined" stroke-linecap="round" stroke-linejoin="round" stroke-dasharray="500" stroke-dashoffset="0"><animate dur="1.5s" repeatCount="stop" attributeName="stroke-dashoffset" values="500; 500; 0; 0" keyTimes="0; 0.468; 0.792; 1"></animate></path><path d="M 580,130.72 640,234.64 740,234.64" fill="none" stroke="#eaeaea" stroke-width="1" stroke-opacity="undefined" stroke-linecap="round" stroke-linejoin="round" stroke-dasharray="220" stroke-dashoffset="0"><animate dur="1.5s" repeatCount="stop" attributeName="stroke-dashoffset" values="220; 220; 0; 0" keyTimes="0; 0.545; 0.688; 1"></animate></path><path d="M 620,130.72 630,148.04 640,130.72" fill="none" stroke="#eaeaea" stroke-width="1" stroke-opacity="undefined" stroke-linecap="round" stroke-linejoin="round" stroke-dasharray="40" stroke-dashoffset="0"><animate dur="1.5s" repeatCount="stop" attributeName="stroke-dashoffset" values="40; 40; 0; 0" keyTimes="0; 0.792; 0.818; 1"></animate></path><path d="M 790,148.04 670,148.04 660,165.36 670,182.68 770,182.68 790,217.32 840,130.72 920,269.28" fill="none" stroke="#eaeaea" stroke-width="1" stroke-opacity="undefined" stroke-linecap="round" stroke-linejoin="round" stroke-dasharray="560" stroke-dashoffset="0"><animate dur="1.5s" repeatCount="stop" attributeName="stroke-dashoffset" values="560; 560; 0; 0" keyTimes="0; 0.636; 1; 1"></animate></path><path d="M 780,269.28 810,217.32 870,217.32 900,269.28" fill="none" stroke="#eaeaea" stroke-width="1" stroke-opacity="undefined" stroke-linecap="round" stroke-linejoin="round" stroke-dasharray="180" stroke-dashoffset="0"><animate dur="1.5s" repeatCount="stop" attributeName="stroke-dashoffset" values="180; 180; 0; 0" keyTimes="0; 0.675; 0.792; 1"></animate></path><path d="M 800,269.28 820,234.64 860,234.64 880,269.28" fill="none" stroke="#eaeaea" stroke-width="1" stroke-opacity="undefined" stroke-linecap="round" stroke-linejoin="round" stroke-dasharray="120" stroke-dashoffset="0"><animate dur="1.5s" repeatCount="stop" attributeName="stroke-dashoffset" values="120; 120; 0; 0" keyTimes="0; 0.727; 0.805; 1"></animate></path><path d="M 820,269.28 830,251.96 850,251.96 860,269.28" fill="none" stroke="#eaeaea" stroke-width="1" stroke-opacity="undefined" stroke-linecap="round" stroke-linejoin="round" stroke-dasharray="60" stroke-dashoffset="0"><animate dur="1.5s" repeatCount="stop" attributeName="stroke-dashoffset" values="60; 60; 0; 0" keyTimes="0; 0.779; 0.818; 1"></animate></path><path d="M 820,200 840,165.36 860,200 820,200" fill="none" stroke="#eaeaea" stroke-width="1" stroke-opacity="undefined" stroke-linecap="round" stroke-linejoin="round" stroke-dasharray="120" stroke-dashoffset="0"><animate dur="1.5s" repeatCount="stop" attributeName="stroke-dashoffset" values="120; 120; 0; 0" keyTimes="0; 0.792; 0.87; 1"></animate></path><path d="M 340,200 420,200 460,130.72 300,130.72 260,200 300,269.28 460,269.28 540,130.72 620,269.28 760,269.28 780,234.64 760,200 660,200 640,165.36 660,130.72 820,130.72 790,182.68 780,165.36 680,165.36" fill="none" stroke="#FFF" stroke-width="0.5" stroke-opacity="undefined" stroke-linecap="round" stroke-linejoin="round" stroke-dasharray="1700" stroke-dashoffset="0"><animate dur="1.5s" repeatCount="stop" attributeName="stroke-dashoffset" values="1700; 1700; 0; 0" keyTimes="0; 0; 1; 1"></animate></path><path d="M 400,165.36 320,165.36 300,200 320,234.64 440,234.64 500,130.72" fill="none" stroke="#FFF" stroke-width="0.5" stroke-opacity="undefined" stroke-linecap="round" stroke-linejoin="round" stroke-dasharray="400" stroke-dashoffset="0"><animate dur="1.5s" repeatCount="stop" attributeName="stroke-dashoffset" values="400; 400; 0; 0" keyTimes="0; 0.052; 0.312; 1"></animate></path><path d="M 480,130.72 430,217.32 330,217.32 320,200 330,182.68 410,182.68 430,148.04 310,148.04 280,200 310,251.96 450,251.96 520,130.72" fill="none" stroke="#FFF" stroke-width="0.5" stroke-opacity="undefined" stroke-linecap="round" stroke-linejoin="round" stroke-dasharray="880" stroke-dashoffset="0"><animate dur="1.5s" repeatCount="stop" attributeName="stroke-dashoffset" values="880; 880; 0; 0" keyTimes="0; 0; 0.558; 1"></animate></path><path d="M 480,269.28 510,217.32 570,217.32 600,269.28" fill="none" stroke="#FFF" stroke-width="0.5" stroke-opacity="undefined" stroke-linecap="round" stroke-linejoin="round" stroke-dasharray="180" stroke-dashoffset="0"><animate dur="1.5s" repeatCount="stop" attributeName="stroke-dashoffset" values="180; 180; 0; 0" keyTimes="0; 0.312; 0.429; 1"></animate></path><path d="M 500,269.28 520,234.64 560,234.64 580,269.28" fill="none" stroke="#FFF" stroke-width="0.5" stroke-opacity="undefined" stroke-linecap="round" stroke-linejoin="round" stroke-dasharray="120" stroke-dashoffset="0"><animate dur="1.5s" repeatCount="stop" attributeName="stroke-dashoffset" values="120; 120; 0; 0" keyTimes="0; 0.364; 0.442; 1"></animate></path><path d="M 520,269.28 530,251.96 550,251.96 560,269.28" fill="none" stroke="#FFF" stroke-width="0.5" stroke-opacity="undefined" stroke-linecap="round" stroke-linejoin="round" stroke-dasharray="60" stroke-dashoffset="0"><animate dur="1.5s" repeatCount="stop" attributeName="stroke-dashoffset" values="60; 60; 0; 0" keyTimes="0; 0.416; 0.455; 1"></animate></path><path d="M 520,200 540,165.36 560,200 520,200" fill="none" stroke="#FFF" stroke-width="0.5" stroke-opacity="undefined" stroke-linecap="round" stroke-linejoin="round" stroke-dasharray="120" stroke-dashoffset="0"><animate dur="1.5s" repeatCount="stop" attributeName="stroke-dashoffset" values="120; 120; 0; 0" keyTimes="0; 0.494; 0.571; 1"></animate></path><path d="M 560,130.72 630,251.96 750,251.96 760,234.64 750,217.32 650,217.32 600,130.72" fill="none" stroke="#FFF" stroke-width="0.5" stroke-opacity="undefined" stroke-linecap="round" stroke-linejoin="round" stroke-dasharray="500" stroke-dashoffset="0"><animate dur="1.5s" repeatCount="stop" attributeName="stroke-dashoffset" values="500; 500; 0; 0" keyTimes="0; 0.468; 0.792; 1"></animate></path><path d="M 580,130.72 640,234.64 740,234.64" fill="none" stroke="#FFF" stroke-width="0.5" stroke-opacity="undefined" stroke-linecap="round" stroke-linejoin="round" stroke-dasharray="220" stroke-dashoffset="0"><animate dur="1.5s" repeatCount="stop" attributeName="stroke-dashoffset" values="220; 220; 0; 0" keyTimes="0; 0.545; 0.688; 1"></animate></path><path d="M 620,130.72 630,148.04 640,130.72" fill="none" stroke="#FFF" stroke-width="0.5" stroke-opacity="undefined" stroke-linecap="round" stroke-linejoin="round" stroke-dasharray="40" stroke-dashoffset="0"><animate dur="1.5s" repeatCount="stop" attributeName="stroke-dashoffset" values="40; 40; 0; 0" keyTimes="0; 0.792; 0.818; 1"></animate></path><path d="M 790,148.04 670,148.04 660,165.36 670,182.68 770,182.68 790,217.32 840,130.72 920,269.28" fill="none" stroke="#FFF" stroke-width="0.5" stroke-opacity="undefined" stroke-linecap="round" stroke-linejoin="round" stroke-dasharray="560" stroke-dashoffset="0"><animate dur="1.5s" repeatCount="stop" attributeName="stroke-dashoffset" values="560; 560; 0; 0" keyTimes="0; 0.636; 1; 1"></animate></path><path d="M 780,269.28 810,217.32 870,217.32 900,269.28" fill="none" stroke="#FFF" stroke-width="0.5" stroke-opacity="undefined" stroke-linecap="round" stroke-linejoin="round" stroke-dasharray="180" stroke-dashoffset="0"><animate dur="1.5s" repeatCount="stop" attributeName="stroke-dashoffset" values="180; 180; 0; 0" keyTimes="0; 0.675; 0.792; 1"></animate></path><path d="M 800,269.28 820,234.64 860,234.64 880,269.28" fill="none" stroke="#FFF" stroke-width="0.5" stroke-opacity="undefined" stroke-linecap="round" stroke-linejoin="round" stroke-dasharray="120" stroke-dashoffset="0"><animate dur="1.5s" repeatCount="stop" attributeName="stroke-dashoffset" values="120; 120; 0; 0" keyTimes="0; 0.727; 0.805; 1"></animate></path><path d="M 820,269.28 830,251.96 850,251.96 860,269.28" fill="none" stroke="#FFF" stroke-width="0.5" stroke-opacity="undefined" stroke-linecap="round" stroke-linejoin="round" stroke-dasharray="60" stroke-dashoffset="0"><animate dur="1.5s" repeatCount="stop" attributeName="stroke-dashoffset" values="60; 60; 0; 0" keyTimes="0; 0.779; 0.818; 1"></animate></path><path d="M 820,200 840,165.36 860,200 820,200" fill="none" stroke="#FFF" stroke-width="0.5" stroke-opacity="undefined" stroke-linecap="round" stroke-linejoin="round" stroke-dasharray="120" stroke-dashoffset="0"><animate dur="1.5s" repeatCount="stop" attributeName="stroke-dashoffset" values="120; 120; 0; 0" keyTimes="0; 0.792; 0.87; 1"></animate></path></svg>
